<svg xmlns="http://www.w3.org/2000/svg" height="559.89" width="514.29" version="1"><defs><linearGradient id="a" y2="220.93" gradientUnits="userSpaceOnUse" x2="40" y1="646.65" x1="728.57"><stop stop-color="#bcbbbb" offset="0"/><stop stop-color="#bcbbbb" stop-opacity="0" offset="1"/></linearGradient><linearGradient id="b" y2="649.01" gradientUnits="userSpaceOnUse" x2="371.43" gradientTransform="matrix(.988 0 0 1 10.295 -.037)" y1="766.54" x1="371.43"><stop stop-color="#008080" offset="0"/><stop stop-color="#003939" offset=".985"/><stop stop-color="#008080" stop-opacity="0" offset="1"/></linearGradient></defs><g><path d="M79.29 441.43s61.88-21.95 182.14-21.43c152.52.66 179.28 23.57 179.28 23.57-118.67 48.25-224.92 49.18-361.42-2.14z" fill-rule="evenodd" stroke="#000"/><path d="M634.29 463.79a257.14 257.14 0 1 1-514.29 0 257.14 257.14 0 1 1 514.29 0z" fill="url(#a)" transform="translate(-120 -206.65)"/><path d="M352.86 693.08a111.43 59.286 0 1 1-222.86 0 111.43 59.286 0 1 1 222.86 0z" transform="matrix(1.481 0 0 1 -102.5 -233.793)" fill="#f9f9f9"/><path d="M79.36 442.85c129.66 47.94 249.52 49.77 364.03 0l42.33 74.29c-158.03 58.3-276.55 55.24-457.15-2.86l50.79-71.43z" fill-rule="evenodd" stroke="#000" stroke-width=".994" fill="url(#b)"/></g></svg>