<?xml version="1.0" encoding="utf-8"?>
<!-- Generator: Adobe Illustrator 18.0.0, SVG Export Plug-In . SVG Version: 6.00 Build 0)  -->
<!DOCTYPE svg PUBLIC "-//W3C//DTD SVG 1.1//EN" "http://www.w3.org/Graphics/SVG/1.1/DTD/svg11.dtd">
<svg version="1.1" id="Layer_1" xmlns="http://www.w3.org/2000/svg" xmlns:xlink="http://www.w3.org/1999/xlink" x="0px" y="0px"
	 viewBox="0 0 203.2 425" enable-background="new 0 0 203.2 425" xml:space="preserve">
<g>
	<circle fill="#6BC6B5" cx="173.2" cy="265" r="30"/>
	<g>
		<g>
			<path fill="#F1627A" d="M68,385c-2.2,0-4,1.8-4,4v2c0,2.2-1.8,4-4,4h-2c-2.2,0-4,1.8-4,4v2c0,2.2-1.8,4-4,4h-2c-2.2,0-4,1.8-4,4
				v2c0,2.2-1.8,4-4,4h-2c-2.2,0-4,1.8-4,4v2c0,2.2,1.8,4,4,4h42c2.2,0,4-1.8,4-4v-32c0-2.2-1.8-4-4-4H68z"/>
		</g>
		<g>
			<path fill="#F1627A" d="M112,385c2.2,0,4,1.8,4,4v2c0,2.2,1.8,4,4,4h2c2.2,0,4,1.8,4,4v2c0,2.2,1.8,4,4,4h2c2.2,0,4,1.8,4,4v2
				c0,2.2,1.8,4,4,4h2c2.2,0,4,1.8,4,4v2c0,2.2-1.8,4-4,4h-42c-2.2,0-4-1.8-4-4v-32c0-2.2,1.8-4,4-4H112z"/>
		</g>
	</g>
	<rect y="300" fill="#F1627A" width="180" height="90"/>
	<path fill="#F1627A" d="M180.2,300c0,12.4-2.5,24.3-7.1,35c-4.6,10.8-11.1,20.5-19.3,28.6c-8.1,8.1-17.8,14.7-28.6,19.3
		c-10.8,4.6-22.6,7.1-35,7.1s-24.3-2.5-35-7.1c-10.8-4.6-20.5-11.1-28.6-19.3S11.9,345.8,7.3,335c-4.6-10.8-7.1-22.6-7.1-35
		s2.5-24.3,7.1-35c4.6-10.8,11.1-20.5,19.3-28.6c8.1-8.1,17.8-14.7,28.6-19.3s22.6-7.1,35-7.1s24.3,2.5,35,7.1s20.5,11.1,28.6,19.3
		c8.1,8.1,14.7,17.8,19.3,28.6C177.7,275.7,180.2,287.6,180.2,300z"/>
	<g>
		<circle fill="#EDE0B7" cx="90.2" cy="210" r="60"/>
	</g>
	<g>
		<path fill="#FFFFFF" d="M90.2,240c-28,0-51.4-19.1-58.1-45c-1.2,4.8-1.9,9.8-1.9,15c0,33.1,26.9,60,60,60s60-26.9,60-60
			c0-5.2-0.7-10.2-1.9-15C141.7,220.9,118.2,240,90.2,240z"/>
	</g>
	<polygon fill="#B2A58E" points="94.2,222 90.2,222 86.2,222 90.2,210 	"/>
	<g>
		<circle fill="#F1627A" cx="90.2" cy="228" r="4"/>
	</g>
	<g>
		<path fill="#E4F4F4" d="M90.2,224c-2.2,0-4,1.8-4,4h8C94.2,225.8,92.5,224,90.2,224z"/>
	</g>
	<g>
		<path fill="#B2A58E" d="M98.2,216c0-0.4,0.1-0.8,0.2-1.2c0.2-0.4,0.4-0.7,0.6-1c0.3-0.3,0.6-0.5,1-0.6c0.4-0.2,0.8-0.2,1.2-0.2
			s0.8,0.1,1.2,0.2c0.4,0.2,0.7,0.4,1,0.6c0.3,0.3,0.5,0.6,0.6,1c0.2,0.4,0.2,0.8,0.2,1.2v2h1v-2c0-0.5-0.1-1.1-0.3-1.6
			c-0.2-0.5-0.5-0.9-0.9-1.3c-0.4-0.4-0.8-0.7-1.3-0.9c-0.5-0.2-1-0.3-1.6-0.3s-1.1,0.1-1.6,0.3c-0.5,0.2-0.9,0.5-1.3,0.9
			c-0.4,0.4-0.7,0.8-0.9,1.3c-0.2,0.5-0.3,1-0.3,1.6v2h1V216z"/>
		<path fill="#B2A58E" d="M77.2,216c0-0.4,0.1-0.8,0.2-1.2c0.2-0.4,0.4-0.7,0.6-1c0.3-0.3,0.6-0.5,1-0.6c0.4-0.2,0.8-0.2,1.2-0.2
			s0.8,0.1,1.2,0.2c0.4,0.2,0.7,0.4,1,0.6c0.3,0.3,0.5,0.6,0.6,1c0.2,0.4,0.2,0.8,0.2,1.2v2h1v-2c0-0.5-0.1-1.1-0.3-1.6
			c-0.2-0.5-0.5-0.9-0.9-1.3c-0.4-0.4-0.8-0.7-1.3-0.9c-0.5-0.2-1-0.3-1.6-0.3s-1.1,0.1-1.6,0.3c-0.5,0.2-0.9,0.5-1.3,0.9
			c-0.4,0.4-0.7,0.8-0.9,1.3c-0.2,0.5-0.3,1-0.3,1.6v2h1V216z"/>
	</g>
	<g>
		<circle fill="#FFFFFF" cx="90.2" cy="320" r="2"/>
		<circle fill="#FFFFFF" cx="90.2" cy="340" r="2"/>
		<circle fill="#FFFFFF" cx="90.2" cy="300" r="2"/>
	</g>
	<g>
		<circle fill="#F598AD" cx="73.8" cy="228" r="6"/>
		<circle fill="#F598AD" cx="106.8" cy="228" r="6"/>
	</g>
	<g>
		<g>
			<rect x="45.6" y="293" fill="#EDE0B7" width="5.6" height="2.8"/>
			<rect x="45.6" y="295.8" fill="#EDE0B7" width="11.2" height="2.8"/>
			<rect x="45.6" y="301.4" fill="#EDE0B7" width="11.2" height="2.8"/>
			<rect x="45.6" y="304.2" fill="#EDE0B7" width="8.4" height="2.8"/>
			<rect x="45.6" y="298.6" fill="#EDE0B7" width="14" height="2.8"/>
			<rect x="48.4" y="295.5" fill="#B2A58E" width="2.8" height="0.3"/>
			<rect x="48.4" y="298.3" fill="#B2A58E" width="8.4" height="0.3"/>
			<rect x="48.4" y="301.1" fill="#B2A58E" width="8.4" height="0.3"/>
			<rect x="48.4" y="303.9" fill="#B2A58E" width="8.4" height="0.3"/>
		</g>
		<linearGradient id="SVGID_1_" gradientUnits="userSpaceOnUse" x1="10.25" y1="300" x2="45.625" y2="300">
			<stop  offset="0" style="stop-color:#F1627A"/>
			<stop  offset="1" style="stop-color:#E55D7E"/>
		</linearGradient>
		<rect x="10.2" y="293" fill="url(#SVGID_1_)" width="35.4" height="14"/>
	</g>
	<polygon fill="#F1627A" points="10.2,210 90.2,10 170.2,210 	"/>
	<polygon fill="#FFFFFF" points="18.2,180 10.2,200 170.2,200 162.2,180 	"/>
	<circle fill="#FFFFFF" cx="90.2" cy="10" r="10"/>
	<polygon fill="#6BC6B5" points="157,239.8 127.8,300 182.1,258.6 	"/>
	<g>
		<g>
			<rect x="129.3" y="293" fill="#EDE0B7" width="5.6" height="2.8"/>
			<rect x="123.7" y="295.8" fill="#EDE0B7" width="11.2" height="2.8"/>
			<rect x="123.7" y="301.4" fill="#EDE0B7" width="11.2" height="2.8"/>
			<rect x="126.5" y="304.2" fill="#EDE0B7" width="8.4" height="2.8"/>
			<rect x="120.9" y="298.6" fill="#EDE0B7" width="14" height="2.8"/>
			<rect x="129.3" y="295.5" fill="#B2A58E" width="2.8" height="0.3"/>
			<rect x="123.7" y="298.3" fill="#B2A58E" width="8.4" height="0.3"/>
			<rect x="123.7" y="301.1" fill="#B2A58E" width="8.4" height="0.3"/>
			<rect x="123.7" y="303.9" fill="#B2A58E" width="8.4" height="0.3"/>
		</g>
		
			<linearGradient id="SVGID_2_" gradientUnits="userSpaceOnUse" x1="1661.625" y1="1178" x2="1697" y2="1178" gradientTransform="matrix(-1 0 0 -1 1831.875 1478)">
			<stop  offset="0" style="stop-color:#F1627A"/>
			<stop  offset="1" style="stop-color:#E55D7E"/>
		</linearGradient>
		<rect x="134.9" y="293" fill="url(#SVGID_2_)" width="35.4" height="14"/>
	</g>
</g>
</svg>
